<svg width="300" height="300" viewBox="0 0 300 300" fill="none" xmlns="http://www.w3.org/2000/svg">
<circle cx="150" cy="150" r="149.5" fill="white" stroke="#DBDBDB"/>
<path d="M144.864 58.9467L82.2517 82.8771C79.5213 83.9476 77.1776 85.817 75.5269 88.2411C73.8763 90.6651 72.9956 93.5309 73 96.4636V156.708L101.775 140.172V106.298L150 87.7941V58C148.245 58.0039 146.505 58.3249 144.864 58.9467ZM102.285 193.86L150 166.361V133.142L76.2782 175.649C75.2857 176.23 74.4615 177.06 73.8868 178.056C73.312 179.052 73.0064 180.181 73 181.331V203.586C73.0247 206.493 73.9189 209.327 75.5677 211.723C77.2165 214.118 79.5443 215.965 82.2517 217.026L144.864 240.956C146.505 241.579 148.245 241.9 150 241.903V212.109L102.285 193.86Z" fill="#3DB1A2"/>
<path d="M223.94 123.671C224.881 123.133 225.661 122.352 226.199 121.411C226.737 120.47 227.013 119.401 227 118.317V96.4636C227.004 93.5309 226.123 90.6653 224.472 88.2411C222.822 85.8173 220.478 83.9479 217.748 82.8771L155.099 58.9467C153.47 58.3287 151.742 58.0081 150 58V87.7947L197.35 106.006L150 133.288V166.506L223.94 123.671ZM155.099 240.956L217.748 217.026C220.455 215.964 222.782 214.117 224.431 211.722C226.08 209.327 226.974 206.493 227 203.586V142.722L198.224 159.331V193.678L150 212.109V241.903C151.742 241.895 153.47 241.574 155.099 240.956Z" fill="#24A492"/>
</svg>
